# xmcd CD database file
#
# Track frame offsets:
#	150
#	18017
#	35405
#	50067
#	64057
#	79695
#	95482
#	117882
#	136920
#	151477
#	167827
#	180187
#
# Disc length: 2705 seconds
#
# Revision: 0
# Processed by: cddbd v1.5.1PL2 Copyright (c) Steve Scherf et al.
# Submitted via: cdripper 1,0,33,916
#
DISCID=8f0a8f0c
DTITLE=John Rich - underneath the same moon
DYEAR=2006
DGENRE=Country
TTITLE0=I Pray For You
TTITLE1=Underneath The Same Moon
TTITLE2=Old Blue Mountain
TTITLE3=She Brings The Lightin' down
TTITLE4=I Love You Like That
TTITLE5=When You Love Someone
TTITLE6=Steel Bridges
TTITLE7=Something To Believe In
TTITLE8=Someday
TTITLE9=Love Won't Listen
TTITLE10=New Jerusalem
TTITLE11=Data Track 12
EXTD=YEAR: 2006
EXTT0=
EXTT1=
EXTT2=
EXTT3=
EXTT4=
EXTT5=
EXTT6=
EXTT7=
EXTT8=
EXTT9=
EXTT10=
EXTT11=
PLAYORDER=
